<svg xmlns="http://www.w3.org/2000/svg" width="270.633" height="270.633" viewBox="0 0 71.605 71.605"><g style="display:inline"><path d="M270.549 761.284h-.01c-.445-.005-.852-.168-1.221-.481-3.157-2.714-5.048-6.098-5.791-10.354-.433-2.476-.428-4.883-.31-7.23a13.661 13.661 0 0 1-2.066 2.995c-.021.022-.04.045-.063.068a1.457 1.457 0 0 1-1.071.473l-.063-.001a1.257 1.257 0 0 1-.39-.082 1.489 1.489 0 0 1-.79-.627c-1.439-2.211-2.177-4.877-2.257-8.152-.031-1.19.024-2.357.126-3.5a12.45 12.45 0 0 1-1.722 2.03l-.028.027c-.428.393-.788.45-1.124.417a1.218 1.218 0 0 1-.228-.036c-.27-.064-.665-.245-.943-.749-1.192-2.15-1.703-4.673-1.565-7.716.039-.898.13-1.777.253-2.638-.52.635-1.09 1.197-1.713 1.698-.341.27-.655.383-1.105.339a1.28 1.28 0 0 1-.255-.057c-.254-.08-.643-.286-.886-.807-.983-2.149-1.297-4.58-.96-7.447a25.16 25.16 0 0 1 .287-1.82 11.7 11.7 0 0 1-2.155 1.908c-.03.02-.06.037-.089.054-.31.188-.615.273-1.001.204a1.136 1.136 0 0 1-.31-.087c-.241-.102-.603-.338-.802-.866-.817-2.216-.944-4.665-.392-7.495.03-.158.063-.315.097-.468a11.864 11.864 0 0 1-2.782 2.198c-.397.225-.873.267-1.256.123-.018-.006-.034-.013-.05-.02-.23-.095-.638-.344-.82-.94l-.014-.048a11.839 11.839 0 0 1-.412-3.538c-.084.133-.171.265-.26.396-1.61 2.392-3.432 4.035-5.566 5.017a1.425 1.425 0 0 1-.989.11 1.207 1.207 0 0 1-.305-.105l-.02-.01c-.217-.113-.594-.39-.73-.982a11.643 11.643 0 0 1-.189-2.946c-.34.503-.699 1.002-1.087 1.49-1.79 2.265-3.73 3.762-5.932 4.581a2.082 2.082 0 0 1-.564.105c-.113 0-.247-.021-.378-.058a1.259 1.259 0 0 1-.354-.144c-.218-.132-.596-.452-.672-1.101a11.618 11.618 0 0 1-.013-2.43 26.782 26.782 0 0 1-1.686 2.048c-2.055 2.249-4.201 3.67-6.563 4.347a1.18 1.18 0 0 1-.17.037 1.38 1.38 0 0 1-.804-.072 1.241 1.241 0 0 1-.371-.202c-.193-.154-.517-.506-.538-1.134-.024-.89.048-1.782.218-2.678a30.769 30.769 0 0 1-2.386 2.565c-2.37 2.255-4.776 3.618-7.354 4.164a2.563 2.563 0 0 1-.37.042c-.157 0-.355-.045-.538-.116a1.196 1.196 0 0 1-.49-.31c-.138-.123-.435-.5-.413-1.144.053-1.194.267-2.38.645-3.565-1.57 1.735-3.263 3.43-5.311 4.87-3.139 2.207-6.416 3.28-10.017 3.28-.46 0-.924-.019-1.389-.053a1.169 1.169 0 0 1-.195-.032c-.404-.066-.71-.211-.956-.434a1.25 1.25 0 0 1-.191-.202c-.194-.183-.362-.562-.409-1.023a1.295 1.295 0 0 1-.009-.153c-.31-4.053.747-7.784 3.23-11.318 1.448-2.058 3.155-3.76 4.902-5.337a13.689 13.689 0 0 1-3.602.657 1.5 1.5 0 0 1-1.212-.467l-.029-.034c-.173-.198-.441-.631-.305-1.293.547-2.588 1.91-4.995 4.169-7.368.82-.864 1.684-1.649 2.565-2.387-.785.149-1.565.221-2.344.221h-.001l-.318-.003c-.591-.022-.934-.29-1.11-.49a3.54 3.54 0 0 1-.076-.093c-.153-.208-.386-.652-.207-1.292.679-2.368 2.102-4.516 4.352-6.57a26.895 26.895 0 0 1 2.05-1.689 11.35 11.35 0 0 1-2.416-.011.411.411 0 0 1-.077-.012c-.592-.09-.896-.436-1.025-.641a1.015 1.015 0 0 1-.062-.108l-.013-.023c-.076-.124-.242-.538-.067-1.093.01-.033.019-.064.03-.094.82-2.203 2.32-4.143 4.583-5.931a25.09 25.09 0 0 1 1.496-1.09 11.528 11.528 0 0 1-2.841-.168c-.022-.003-.043-.005-.064-.01-.615-.127-.903-.506-1.019-.721l-.024-.044-.005-.013c-.108-.224-.252-.684.009-1.263.985-2.143 2.626-3.965 5.022-5.577.129-.087.26-.173.389-.257-1.22.035-2.387-.1-3.494-.404-.018-.005-.037-.009-.055-.016-.567-.171-.828-.528-.946-.798a1.074 1.074 0 0 1-.062-.17c-.076-.255-.118-.672.149-1.148a11.83 11.83 0 0 1 2.208-2.794l-.456.093c-2.812.546-5.298.419-7.485-.387a1.448 1.448 0 0 1-.883-.823 1.32 1.32 0 0 1-.071-.234v-.005c-.044-.118-.115-.6.245-1.132a11.64 11.64 0 0 1 1.92-2.17c-.599.117-1.207.214-1.83.288-2.873.336-5.297.026-7.434-.955-.466-.22-.682-.544-.782-.791a1.151 1.151 0 0 1-.09-.338c-.035-.265-.009-.681.329-1.11a11.706 11.706 0 0 1 1.712-1.73c-.864.125-1.744.217-2.644.258-3.068.142-5.566-.375-7.715-1.567-.53-.3-.704-.717-.759-.98a1.182 1.182 0 0 1-.032-.272c-.02-.11 0-.588.431-1.048.616-.65 1.299-1.231 2.058-1.746-.94.082-1.893.135-2.86.135l-.65-.008c-3.274-.082-5.94-.82-8.147-2.255-.469-.31-.632-.698-.687-.972a1.155 1.155 0 0 1-.029-.26v-.003c-.012-.188.037-.682.523-1.126a13.694 13.694 0 0 1 2.989-2.07c-2.538.132-5.067.067-7.225-.31-4.255-.742-7.64-2.634-10.348-5.784-.315-.368-.476-.767-.486-1.188-.004-.07-.001-.14.008-.212-.005-.299.157-.703.465-1.07 2.719-3.162 6.103-5.055 10.359-5.796 2.158-.378 4.694-.438 7.23-.31a13.624 13.624 0 0 1-3.01-2.081c-.489-.447-.537-.942-.523-1.195l.005-.055c.01-.118.039-.236.086-.348.092-.26.27-.534.619-.762 2.21-1.44 4.876-2.177 8.15-2.26l.648-.008c.967 0 1.92.052 2.859.136a12.571 12.571 0 0 1-2.02-1.707c0-.003-.004-.005-.007-.008l-.016-.02h-.001c-.441-.482-.46-.952-.433-1.193.005-.034.009-.066.016-.1.011-.061.029-.123.05-.183.084-.255.276-.587.712-.833 2.158-1.195 4.647-1.714 7.723-1.568.898.038 1.775.13 2.636.253a11.599 11.599 0 0 1-1.7-1.715c-.376-.485-.372-.937-.326-1.192.013-.068.031-.134.054-.199.089-.255.3-.625.807-.858 2.134-.98 4.559-1.294 7.437-.956.62.073 1.227.171 1.825.288a11.635 11.635 0 0 1-1.946-2.213c-.322-.507-.26-.966-.188-1.204a1.461 1.461 0 0 1 .945-.953c2.178-.804 4.636-.936 7.47-.38.112.02.224.043.335.067a11.768 11.768 0 0 1-2.093-2.683c-.318-.567-.21-1.042-.116-1.274a1.444 1.444 0 0 1 1.002-.86v-.002c1.164-.32 2.4-.456 3.682-.404a25.42 25.42 0 0 1-.514-.336c-2.394-1.61-4.035-3.432-5.018-5.566-.23-.519-.152-.93-.055-1.176 0-.003.004-.008.005-.012a1.306 1.306 0 0 1 .063-.137c.118-.22.407-.606 1.03-.729.955-.18 1.914-.234 2.897-.177a23.981 23.981 0 0 1-1.498-1.09c-2.263-1.789-3.762-3.729-4.58-5.932-.012-.03-.022-.061-.031-.092a1.438 1.438 0 0 1 .142-1.224c.132-.207.444-.564 1.054-.646.06-.01.12-.015.18-.015.525-.074 1.46-.086 2.282-.003a27.543 27.543 0 0 1-2.05-1.688c-2.248-2.055-3.67-4.201-4.346-6.561-.18-.653.051-1.095.205-1.302l.048-.063c.165-.197.514-.5 1.121-.52l.333-.005c.779 0 1.559.073 2.345.221a31.038 31.038 0 0 1-2.566-2.384c-2.257-2.374-3.618-4.78-4.164-7.356-.14-.675.13-1.11.303-1.31.021-.024.044-.047.066-.07l.015-.014c.11-.124.467-.417 1.071-.417 1.237.055 2.45.272 3.659.656-1.742-1.573-3.444-3.27-4.888-5.325-2.483-3.533-3.54-7.264-3.226-11.406l.005-.047c.045-.47.217-.859.514-1.16.024-.024.05-.05.077-.072.302-.276.687-.434 1.144-.473 4.26-.322 7.882.735 11.423 3.224 2.053 1.444 3.75 3.146 5.324 4.886a13.659 13.659 0 0 1-.653-3.581c-.022-.635.256-1.01.446-1.189a.553.553 0 0 1 .082-.076c.07-.056.144-.105.227-.147v.005a1.598 1.598 0 0 1 1.066-.134c2.564.541 4.97 1.905 7.344 4.163.862.82 1.647 1.683 2.384 2.562-.17-.892-.24-1.777-.218-2.66.022-.644.347-.996.54-1.15a1.07 1.07 0 0 1 .365-.2c.346-.126.664-.126.971-.04 2.368.68 4.516 2.102 6.57 4.35.607.665 1.164 1.351 1.686 2.047-.081-.816-.076-1.62.011-2.415.075-.59.38-.907.595-1.06.134-.098.286-.166.447-.203.333-.09.609-.063.901.042 2.231.827 4.171 2.326 5.96 4.59.387.49.747.988 1.086 1.492-.06-.986 0-1.94.176-2.875.125-.62.488-.913.719-1.04.089-.048.183-.086.278-.11a1.459 1.459 0 0 1 1.001.066l.058.024c2.136.984 3.956 2.625 5.568 5.019.088.13.175.261.259.392-.037-1.229.102-2.398.412-3.521.174-.628.592-.887.827-.987.077-.032.16-.058.242-.074.388-.084.704-.018 1.035.156a11.988 11.988 0 0 1 2.824 2.228 18.744 18.744 0 0 1-.097-.464c-.553-2.83-.425-5.278.388-7.483.213-.558.588-.792.835-.889a.82.82 0 0 1 .087-.032c.399-.13.882-.053 1.27.207.79.54 1.511 1.176 2.167 1.917a25.994 25.994 0 0 1-.286-1.824c-.336-2.865-.022-5.296.955-7.433.242-.523.627-.732.879-.816.003 0 .009-.003.014-.005a1.22 1.22 0 0 1 .242-.053c.335-.037.674-.016 1.112.334.626.501 1.197 1.066 1.718 1.701a27.37 27.37 0 0 1-.255-2.638c-.137-3.043.375-5.566 1.565-7.714.307-.55.753-.717 1.015-.767l.045-.008a1.484 1.484 0 0 1 1.245.415 12.611 12.611 0 0 1 1.742 2.05 30.894 30.894 0 0 1-.128-3.502c.082-3.274.82-5.94 2.255-8.148.333-.513.772-.66 1.043-.7l.052-.007c.036-.003.063-.021.107-.006a1.503 1.503 0 0 1 1.115.47c.017.018.035.036.05.055.81.884 1.498 1.877 2.072 2.993-.118-2.345-.121-4.75.31-7.225.743-4.256 2.634-7.64 5.784-10.347.04-.034.086-.068.13-.097.248-.223.65-.383 1.078-.39h.047c.446.005.851.167 1.221.48l.023.021c3.14 2.706 5.027 6.087 5.768 10.333.431 2.471.428 4.873.31 7.214a13.687 13.687 0 0 1 2.07-2.988c.406-.436.831-.525 1.119-.525h.024c.161 0 .323.034.471.1.25.09.506.26.722.575.01.013.018.026.026.039h.001c1.435 2.208 2.173 4.873 2.255 8.147a31.039 31.039 0 0 1-.127 3.508 12.562 12.562 0 0 1 1.734-2.046c.432-.407.803-.457 1.138-.436a.842.842 0 0 1 .122.013c.036.006.068.013.102.02.265.065.664.243.947.745 1.193 2.155 1.707 4.68 1.57 7.723-.04.9-.131 1.78-.255 2.644a11.554 11.554 0 0 1 1.717-1.703l.038-.029c.483-.37.897-.358 1.204-.287.056.011.11.027.16.047.253.088.617.302.846.804.98 2.132 1.292 4.565.956 7.435-.072.62-.17 1.23-.286 1.827a11.514 11.514 0 0 1 2.145-1.903l.049-.034c.371-.24.837-.318 1.224-.198.04.011.08.025.117.042.25.1.636.34.833.9.808 2.186.934 4.635.381 7.47-.03.155-.061.308-.095.462a11.796 11.796 0 0 1 2.781-2.202l.062-.032a1.443 1.443 0 0 1 1.032-.137c.068.014.134.034.199.06.24.098.672.356.844.998.312 1.12.45 2.29.414 3.52.08-.128.165-.254.249-.38 1.613-2.394 3.434-4.037 5.567-5.019.02-.009.04-.02.062-.027.308-.13.612-.17.975-.072.076.02.15.046.222.078.01.005.017.01.027.013l.073.04c.236.136.581.428.694 1.018.18.94.238 1.901.178 2.89.34-.506.701-1.007 1.089-1.498 1.79-2.263 3.73-3.762 5.931-4.582.136-.049.422-.104.565-.104.222 0 .433.05.627.147.039.018.076.04.115.063.216.134.586.454.662 1.095.089.802.094 1.61.013 2.43a27.219 27.219 0 0 1 1.688-2.05c2.055-2.248 4.201-3.671 6.561-4.348.11-.03.347-.066.46-.066.296 0 .577.087.811.25l.049.034c.047.037.092.076.136.12.124.088.405.434.428 1.028a12.73 12.73 0 0 1-.217 2.69 31.12 31.12 0 0 1 2.387-2.57c2.373-2.257 4.778-3.618 7.356-4.166.083-.016.285-.04.367-.04a1.417 1.417 0 0 1 1.053.454.08.08 0 0 1 .012.014c.182.199.396.556.375 1.102a13.671 13.671 0 0 1-.655 3.605c1.577-1.746 3.28-3.455 5.337-4.902 3.544-2.49 7.31-3.531 11.409-3.226l.02.001c.57.047.94.285 1.154.485l.03.029.022.021c.3.309.47.686.522 1.14.008.055.012.113.012.17.309 4.05-.747 7.78-3.23 11.315-1.436 2.043-3.129 3.733-4.86 5.3a13.681 13.681 0 0 1 3.55-.642h.006c.575 0 .919.205 1.111.375.03.026.058.055.084.084.016.015.03.032.045.049v-.001c.173.203.441.64.294 1.306-.546 2.573-1.906 4.98-4.164 7.351a31.065 31.065 0 0 1-2.565 2.386 12.597 12.597 0 0 1 2.346-.223l.32.005c.314.008.56.094.746.2.41.191.696.605.7 1.084.017.173.005.372-.059.595-.677 2.365-2.1 4.513-4.348 6.57a27.954 27.954 0 0 1-2.05 1.687 11.562 11.562 0 0 1 2.418.01l.039.004c.565.074.875.38 1.027.598a1.44 1.44 0 0 1 .174 1.28.756.756 0 0 1-.029.086c-.82 2.203-2.317 4.145-4.582 5.931-.491.39-.99.75-1.496 1.09.974-.06 1.94-.002 2.872.174l.024.005c.567.111.858.437.999.672.005.006.006.012.011.019.054.09.094.184.123.28.079.258.115.63-.084 1.07-.987 2.142-2.628 3.964-5.024 5.578-.135.092-.27.18-.407.268a11.866 11.866 0 0 1 3.538.412c.596.155.864.557.972.793.006.018.016.035.023.055.1.24.216.728-.115 1.295a11.84 11.84 0 0 1-2.206 2.788c.153-.034.308-.066.465-.097 2.81-.549 5.296-.418 7.487.388.537.216.777.556.883.83.018.04.032.083.045.125.07.234.133.7-.202 1.211l-.024.036a11.56 11.56 0 0 1-1.914 2.16c.6-.115 1.208-.212 1.829-.287 2.875-.337 5.298-.026 7.436.957.486.224.7.573.793.822.02.047.036.093.047.142.123.321.08.619-.079.927-.012.023-.026.045-.039.066a1.743 1.743 0 0 1-.144.231l-.043.06a11.655 11.655 0 0 1-1.704 1.719 26.982 26.982 0 0 1 2.642-.257c3.076-.14 5.566.375 7.715 1.567.526.298.7.712.759.97.016.067.026.135.03.204.018.271-.032.71-.432 1.132l-.036.037c-.6.63-1.268 1.196-2.013 1.703a33.05 33.05 0 0 1 3.504-.128c3.274.083 5.938.82 8.147 2.257.456.299.624.672.682.945.026.102.037.207.035.31.01.187-.048.659-.512 1.095a13.75 13.75 0 0 1-2.981 2.07c2.53-.125 5.05-.06 7.199.313 4.253.741 7.638 2.634 10.346 5.784.019.021.035.042.053.066.278.346.423.724.433 1.126l-.001.092c-.013.44-.175.833-.478 1.19-2.714 3.157-6.1 5.05-10.354 5.793-1.462.253-3.018.378-4.756.378a50.24 50.24 0 0 1-2.47-.068 13.62 13.62 0 0 1 2.997 2.072c.464.433.54.882.527 1.184a1.217 1.217 0 0 1-.09.404 1.472 1.472 0 0 1-.624.775c-2.207 1.438-4.872 2.176-8.148 2.257-.218.006-.462.02-.652.009-.968 0-1.918-.053-2.856-.136a12.495 12.495 0 0 1 2.098 1.792c.352.4.402.809.386 1.07-.005.081-.016.164-.037.241-.066.268-.246.66-.742.939a.248.248 0 0 1-.024.013c-1.922 1.062-4.135 1.58-6.765 1.58-.303 0-.615-.007-.933-.022a27.002 27.002 0 0 1-2.646-.257 11.654 11.654 0 0 1 1.704 1.719v.001l.023.03a1.437 1.437 0 0 1 .264 1.319c-.076.244-.275.636-.795.885a.18.18 0 0 1-.028.013c-2.137.982-4.555 1.292-7.436.956a25.58 25.58 0 0 1-1.826-.287 11.536 11.536 0 0 1 1.913 2.16c.34.506.304.957.236 1.212a1.078 1.078 0 0 1-.067.188c-.106.256-.35.618-.891.807-2.173.805-4.63.937-7.466.383-.153-.03-.307-.061-.459-.095a11.839 11.839 0 0 1 2.216 2.814c.277.512.206.95.112 1.205l-.015.04c-.093.24-.345.672-.982.854l-.04.01a11.758 11.758 0 0 1-3.504.405c.128.082.257.166.385.252 2.392 1.612 4.035 3.432 5.019 5.568.227.513.153.923.054 1.172-.014.037-.027.071-.045.109-.11.224-.381.617-.987.755a.84.84 0 0 1-.08.02c-.932.178-1.9.234-2.88.174.503.341 1.004.7 1.494 1.087 2.264 1.79 3.762 3.732 4.582 5.933.158.465.108.824.006 1.08a1.182 1.182 0 0 1-.189.338c-.165.212-.476.488-1.02.551-.807.087-1.61.092-2.43.012.7.523 1.387 1.082 2.051 1.69 2.247 2.054 3.67 4.2 4.349 6.56.17.616-.031 1.047-.173 1.259l-.06.08c-.155.196-.51.529-1.148.545l-.332.005c-.776 0-1.555-.074-2.34-.221.88.738 1.744 1.521 2.567 2.386 2.258 2.374 3.62 4.78 4.164 7.356.061.268.053.5.008.696a1.221 1.221 0 0 1-.71.935 1.58 1.58 0 0 1-.826.176 13.716 13.716 0 0 1-3.577-.646c1.74 1.572 3.443 3.27 4.885 5.32 2.486 3.538 3.54 7.268 3.227 11.41a1.32 1.32 0 0 1-.035.212c-.086.482-.281.774-.45.958-.036.04-.074.078-.114.113-.296.268-.674.427-1.129.47-.491.036-.955.055-1.417.055-3.602 0-6.877-1.072-10.017-3.279-2.058-1.449-3.76-3.156-5.337-4.902.386 1.2.604 2.397.657 3.602.021.58-.21.942-.396 1.139l-.042.043a1.334 1.334 0 0 1-.39.254 1.432 1.432 0 0 1-.852.126 1.117 1.117 0 0 1-.127-.021c-2.577-.544-4.982-1.906-7.355-4.166a30.535 30.535 0 0 1-2.387-2.565c.17.895.24 1.78.218 2.665-.022.566-.262.903-.481 1.1a1.156 1.156 0 0 1-.263.183c-.04.017-.08.037-.12.053a1.45 1.45 0 0 1-.848.087 1.004 1.004 0 0 1-.174-.035c-2.36-.679-4.505-2.102-6.56-4.349a27.518 27.518 0 0 1-1.688-2.048c.082.818.077 1.622-.012 2.417-.07.592-.38.912-.604 1.066a.988.988 0 0 1-.13.082c-.044.024-.093.044-.144.065-.018.006-.036.011-.052.018a1.647 1.647 0 0 1-.475.087 2.19 2.19 0 0 1-.538-.097c-2.229-.827-4.169-2.326-5.958-4.59-.388-.492-.75-.99-1.09-1.496.062.986.002 1.944-.174 2.88-.127.649-.525.94-.752 1.056l-.018.009-.045.021-.067.028a1.12 1.12 0 0 1-.126.038c-.129.036-.273.059-.382.059a2.09 2.09 0 0 1-.656-.15c-2.144-.984-3.966-2.627-5.578-5.023a50.57 50.57 0 0 1-.255-.387 11.762 11.762 0 0 1-.413 3.518 1.419 1.419 0 0 1-.832.988.96.96 0 0 1-.175.057 1.434 1.434 0 0 1-1.124-.157 11.825 11.825 0 0 1-2.8-2.217c.033.151.065.306.095.461.552 2.832.424 5.28-.39 7.486-.09.25-.218.436-.355.573a1.189 1.189 0 0 1-.603.367c-.29.124-.568.097-.872-.03-.04-.02-.08-.04-.118-.062a1.866 1.866 0 0 1-.239-.134 11.637 11.637 0 0 1-2.174-1.924c.116.6.215 1.208.286 1.828.338 2.872.026 5.303-.953 7.435a1.58 1.58 0 0 1-.376.52 1.202 1.202 0 0 1-.84.36c-.415.017-.71-.093-1.02-.334a11.52 11.52 0 0 1-1.731-1.717c.123.866.213 1.745.255 2.646.137 3.047-.376 5.568-1.565 7.713a1.59 1.59 0 0 1-.486.546 1.2 1.2 0 0 1-.763.247h-.024v.003c-.248 0-.617-.07-.98-.39a12.296 12.296 0 0 1-1.794-2.092 30.53 30.53 0 0 1 .125 3.503c-.08 3.274-.819 5.938-2.255 8.146a1.56 1.56 0 0 1-.617.567 1.305 1.305 0 0 1-.597.148H281.06c-.286 0-.711-.089-1.107-.51a.573.573 0 0 1-.056-.066 13.858 13.858 0 0 1-2.01-2.911c.118 2.339.12 4.738-.31 7.206-.743 4.256-2.636 7.64-5.784 10.347h-.001a.065.065 0 0 1-.009.008c-.354.3-.741.46-1.153.475l-.081.003" style="fill:#b1b1b1;fill-opacity:1;fill-rule:nonzero;stroke:none;stroke-width:1.61526406" transform="translate(-40.55 -143.247) scale(.28222)"/><path d="M328.546-540.228c-.015 0-.03.003-.045.004-1.208.01-2.443.52-3.771 1.644l-.055.04v.001l-.01.008c-24.506 21.06-40.742 48.202-47.03 84.233-6.003 34.406-1.942 67.264 0 100.715l49.653 854.834.112 43.968h1.171V-540.228h-.025zM1426.876 557.952v-.045c-.011-1.209-.52-2.444-1.645-3.772-.014-.018-.025-.036-.039-.055 0-.003-.01-.006-.01-.01-21.06-24.505-48.202-40.742-84.232-47.029-34.407-6.003-67.264-1.943-100.715 0l-854.834 49.652-43.969.112v1.172H1426.88v-.026zM-769.731 558.125H315.714v1.172l-43.967.112-854.836 49.654c-33.451 1.943-66.308 6.003-100.715 0-36.03-6.287-63.172-22.524-84.232-47.03l-.01-.011-.016-.023c-1.142-1.34-1.657-2.586-1.668-3.803a1.65 1.65 0 0 1-.002-.07zM328.696 1656.38h.045c1.208-.01 2.444-.52 3.772-1.644l.054-.039c.003 0 .006 0 .01-.01 24.506-21.06 40.743-48.201 47.03-84.232 6.003-34.406 1.943-67.264 0-100.715l-49.653-854.834-.11-43.969h-1.173v1085.448h.026zM1105.172-218.56c-.01-.01-.023-.019-.034-.029-.862-.846-2.096-1.36-3.83-1.504-.023-.003-.043-.008-.066-.01h-.013c-32.22-2.438-62.893 5.274-92.816 26.306-28.574 20.084-48.936 46.188-71.216 71.216l-569.35 639.568-31.011 31.17.829.828 767.527-767.527c-.01-.006-.012-.012-.018-.018zM1105.278 1334.607l.029-.035c.847-.862 1.36-2.096 1.504-3.83 0-.023.01-.043.01-.066 0 0 .002-.01 0-.013 2.438-32.22-5.274-62.893-26.306-92.816-20.084-28.574-46.188-48.937-71.216-71.216L369.731 597.28l-31.17-31.012-.828.828 767.527 767.527.018-.018zM-448.08-218.506 319.444 549.02l-.829.828-31.168-31.01-639.57-569.35c-25.028-22.28-51.133-42.642-71.217-71.216-21.032-29.923-28.743-60.596-26.307-92.816l.001-.015c.001-.01.004-.018.006-.028.14-1.755.657-3 1.51-3.868l.048-.051zM-447.959 1334.784l.035.028c.862.847 2.096 1.36 3.83 1.505.023 0 .042.01.066.01h.013c32.22 2.437 62.894-5.274 92.816-26.306 28.575-20.084 48.937-46.189 71.217-71.216l569.349-639.569 31.012-31.169-.829-.829-767.527 767.528c.005.01.012.011.018.017zM-350.408 277.56l666.844 276.216-.2.483-27.03-11.143-533.642-197.077c-20.882-7.712-41.76-14.4-61.874-25.629-21.063-11.758-34.967-25.354-43.723-40.808l-.004-.007c-.002-.005-.003-.01-.006-.014-.473-.842-.577-1.487-.376-1.99l.01-.03zM1007.302 839.192 340.458 562.977l.2-.483 27.03 11.142L901.33 770.713c20.882 7.712 41.761 14.401 61.874 25.63 21.063 11.758 34.967 25.354 43.724 40.808v.007c0 .005 0 .01.01.014.472.842.576 1.486.375 1.99 0 .01-.01.02-.01.03zM609.687-120.654 333.472 546.19l-.483-.2 11.142-27.03L541.208-14.682c7.712-20.882 14.4-41.761 25.63-61.874 11.758-21.063 25.354-34.967 40.808-43.724l.007-.004.014-.006c.842-.473 1.486-.577 1.99-.376l.03.011zM47.466 1236.813c.006 0 .013 0 .02.01.5.2 1.139.097 1.972-.367.011-.01.021-.01.032-.014h.007c15.454-8.757 29.05-22.661 40.808-43.724 11.23-20.113 17.918-40.992 25.63-61.874l197.077-533.65 11.143-27.03-.483-.2-276.216 666.845h.01zM-350.143 839.233l666.844-276.216.2.483-26.992 11.234-516.696 237.987c-20.22 9.313-39.712 19.347-61.874 25.63-23.209 6.578-42.654 6.796-59.773 2.06l-.008-.002-.014-.006c-.93-.26-1.46-.643-1.674-1.142l-.013-.028zM1007.286 276.92 340.442 553.136l-.2-.483 26.992-11.234L883.93 303.432c20.22-9.313 39.712-19.347 61.874-25.63 23.208-6.578 42.654-6.796 59.773-2.06l.01.002c0 .002.01.004.013.006.93.261 1.46.643 1.674 1.142 0 .009.01.019.013.028zM47.415-120.638l276.216 666.844-.483.2-11.234-26.992L73.927 2.718c-9.313-20.22-19.347-39.712-25.63-61.874-6.578-23.208-6.796-42.654-2.06-59.773l.002-.008.006-.014c.261-.93.643-1.459 1.142-1.673l.028-.014zM609.728 1236.79 333.512 569.948l.483-.2 11.234 26.992 237.987 516.696c9.313 20.22 19.347 39.712 25.63 61.874 6.578 23.209 6.796 42.654 2.06 59.773 0 0-.002 0-.002.01-.002.01-.004.01-.006.014-.261.93-.643 1.46-1.142 1.674-.009 0-.019.01-.028.013zM-358.256 204.508l641.492 330.855-.24.465-26.007-13.358-515.351-240.885c-20.167-9.426-40.415-17.833-59.522-30.699-20.009-13.474-32.731-28.182-40.168-44.312l-.004-.008a.074.074 0 0 1-.004-.014c-.401-.88-.451-1.53-.209-2.015a.238.238 0 0 1 .013-.029zM-376.486 124.381 238.04 502.978l-.274.445-24.918-15.293-495.578-279.312c-19.393-10.93-38.945-20.848-57.02-35.128-18.928-14.954-30.497-30.585-36.689-47.234 0-.003-.002-.005-.003-.008l-.003-.014c-.333-.907-.333-1.56-.055-2.025l.016-.028zM-400.26 35.646 221.929 484.12l-.332.44-25.233-18.124-504.055-334.551c-19.724-13.092-39.708-25.143-57.73-41.613-18.874-17.247-29.836-34.558-34.972-52.46 0-.003 0-.005-.002-.008 0-.006 0-.01-.002-.015-.275-.975-.218-1.656.12-2.117a.448.448 0 0 1 .02-.028zM-423.304-63.503 213.923 467.29l-.392.449-25.849-21.458-518.447-399.017c-20.288-15.614-40.935-30.128-59.127-49.25-19.05-20.027-29.555-39.514-33.724-59.193 0-.004 0-.006-.002-.01v-.016c-.223-1.071-.11-1.8.291-2.271a.473.473 0 0 1 .023-.028zM1015.476 204.458c0-.006-.01-.01-.012-.016-.253-.476-.807-.81-1.743-.994l-.034-.01v.001l-.01-.002c-17.455-3.292-36.814-1.453-59.393 7.038-21.56 8.108-40.15 19.732-59.522 30.699L399.71 521.412l-25.962 13.447.24.464 641.492-330.855c0-.003 0-.007-.01-.01zM1033.702 124.333c0-.006-.01-.01-.013-.015-.289-.455-.866-.746-1.813-.859l-.035-.007v.001h-.01c-17.654-1.958-36.818 1.345-58.687 11.525-20.884 9.722-38.536 22.724-57.02 35.129l-472.351 317.01-24.867 15.379.274.444 614.525-378.597c0-.003 0-.007-.01-.01zM1057.47 35.598c0-.006-.01-.01-.016-.015-.348-.45-.99-.703-2.01-.737l-.038-.004h-.01c-19.007-.5-39.161 4.619-61.594 17.145-21.42 11.962-39.105 27.062-57.729 41.613L460.128 465.435l-25.172 18.209.332.44 622.188-448.477c0-.003 0-.006-.01-.01zM1080.508-63.552c-.01-.005-.012-.01-.017-.015-.41-.457-1.122-.68-2.226-.64l-.041-.001h-.01c-20.558.919-41.921 7.976-65.176 23.19C990.832-26.493 972.9-8.87 953.912 8.231l-485.24 437.029-25.775 21.544.391.448 637.228-530.795c0-.003-.01-.007-.01-.01zM1015.399 911.645 373.907 580.79l.24-.465 26.007 13.358 515.351 240.885c20.167 9.426 40.415 17.833 59.522 30.7 20.009 13.473 32.731 28.18 40.169 44.311v.022c.4.88.45 1.53.208 2.016 0 .01-.01.019-.013.028zM1033.629 991.772 419.104 613.175l.274-.445 24.918 15.293 495.578 279.312c19.393 10.93 38.945 20.849 57.02 35.128 18.928 14.954 30.497 30.585 36.689 47.234v.022c.333.907.333 1.56.055 2.025 0 .01-.01.019-.015.028zM1057.402 1080.508 435.215 632.032l.332-.44 25.233 18.124 504.055 334.551c19.724 13.092 39.708 25.143 57.73 41.613 18.874 17.247 29.836 34.558 34.972 52.46v.025c.275.975.218 1.655-.12 2.117-.01.01-.013.019-.02.027zM1080.447 1179.656 443.221 648.862l.391-.449 25.849 21.458 518.447 399.017c20.288 15.614 40.935 30.128 59.127 49.25 19.05 20.027 29.555 39.515 33.724 59.193V1177.358c.222 1.072.108 1.8-.292 2.272-.01.01-.014.019-.022.028zM-358.333 911.695c.003.006.008.01.012.016.253.476.807.81 1.743.994l.034.01a.03.03 0 0 1 .008.001c17.455 3.292 36.814 1.453 59.393-7.038 21.56-8.108 40.15-19.732 59.522-30.699l495.053-280.238 25.962-13.447-.24-.464-641.492 330.855a.05.05 0 0 0 .005.01zM-376.559 991.82l.013.016c.288.454.866.746 1.813.858l.035.007v-.001l.008.001c17.654 1.958 36.818-1.345 58.687-11.526 20.884-9.722 38.536-22.724 57.02-35.129l472.351-317.01 24.867-15.378-.274-.445-614.526 378.597.006.01zM-400.326 1080.555c.005.01.01.01.015.015.348.45.99.703 2.01.737h.046c19.007.5 39.161-4.619 61.594-17.145 21.421-11.962 39.106-27.062 57.73-41.613l475.945-371.836 25.172-18.208-.332-.44-622.188 448.476c.002 0 .005.01.007.01zM-423.365 1179.705c.005.01.012.01.017.015.41.457 1.123.68 2.227.64h.041l.001-.001h.008c20.557-.919 41.92-7.976 65.175-23.19 22.207-14.526 40.138-32.148 59.127-49.25L188.47 670.89l25.775-21.544-.392-.448-637.228 530.795c.002 0 .005.01.008.01zM92.922-177.594l219.653 687.553-.498.159-8.944-27.835-194.077-534.74c-7.595-20.926-15.968-41.187-20.38-63.796-4.622-23.676-3.218-43.072 2.929-59.737 0-.003.002-.005.003-.008l.007-.013c.338-.905.762-1.4 1.277-1.572a.272.272 0 0 1 .03-.011zM136.69-247.143 303.516 455.1l-.508.12-6.806-28.433-152.924-547.93c-5.984-21.441-12.796-42.28-15.48-65.158-2.81-23.959.063-43.192 7.457-59.342 0-.003.003-.005.004-.008l.008-.013c.406-.877.867-1.338 1.393-1.47l.03-.01zM182.625-326.7l122.832 757.074-.545.076-5.027-30.658-119.857-592.984c-4.69-23.204-10.3-45.856-11.397-70.246-1.15-25.541 3.338-45.533 12.366-61.823 0-.003.003-.005.004-.008l.009-.013c.495-.884 1.016-1.324 1.582-1.412l.032-.006zM236.438-413.103l75.26 825.916-.595.04-3.105-33.45-84.45-648.746c-3.304-25.387-7.642-50.25-6.983-76.634.69-27.631 7.042-48.84 18.009-65.702l.005-.008.01-.013c.601-.915 1.197-1.35 1.813-1.4a.424.424 0 0 1 .036-.003zM1064.332 793.745v-.02c.157-.515 0-1.143-.53-1.934-.01-.011-.01-.02-.017-.031v-.007c-10.014-14.67-25.004-27.059-46.974-37.02-20.979-9.513-42.343-14.437-63.795-20.381L404.802 582.455l-27.867-8.85-.159.497 687.554 219.654v-.011zM1133.877 749.976v-.02c.117-.526-.085-1.14-.675-1.889-.01-.01-.012-.02-.02-.03v-.006c-11.1-13.867-26.986-25.083-49.649-33.348-21.64-7.892-43.317-11.18-65.159-15.48L460.211 589.362l-28.457-6.71-.12.51 702.243 166.826v-.011zM1213.428 704.037v-.021c.073-.564-.203-1.197-.9-1.943-.01-.01-.015-.02-.024-.03v-.006c-13.087-13.794-30.957-24.425-55.677-31.43-23.605-6.69-46.788-8.517-70.246-11.397l-599.472-73.616-30.674-4.924-.077.545 757.075 122.833v-.012zM1299.829 650.218v-.023c.033-.613-.313-1.275-1.122-2.026-.01-.01-.017-.02-.028-.03 0-.003 0-.004-.01-.007-15.186-13.887-35.283-24.003-62.483-29.689-25.975-5.43-51.115-5.649-76.634-6.983l-652.143-34.09-33.46-2.993-.04.595 825.917 75.259.001-.013zM564.221 1293.747 344.568 606.195l.498-.16 8.944 27.835 194.077 534.74c7.595 20.926 15.968 41.188 20.381 63.796 4.621 23.676 3.217 43.072-2.93 59.737 0 0-.002 0-.003.01-.002 0-.005.01-.007.013-.338.905-.763 1.4-1.278 1.572-.01 0-.019.01-.029.011zM520.453 1363.296 353.627 661.053l.509-.12 6.805 28.433 152.924 547.93c5.984 21.441 12.796 42.28 15.48 65.158 2.81 23.959-.062 43.192-7.457 59.342 0 0-.003 0-.004.01-.003 0-.005.01-.008.013-.405.877-.867 1.339-1.393 1.471-.01 0-.02.01-.03.01zM474.518 1442.852 351.686 685.78l.545-.076 5.027 30.658 119.857 592.984c4.69 23.204 10.3 45.856 11.397 70.246 1.15 25.542-3.338 45.534-12.366 61.823 0 0-.003 0-.004.01-.003 0-.006.01-.009.012-.495.884-1.016 1.325-1.582 1.412-.01 0-.021 0-.032.01zM420.705 1529.256l-75.26-825.916.595-.04 3.105 33.45 84.45 648.746c3.304 25.387 7.642 50.25 6.983 76.634-.69 27.631-7.042 48.84-18.009 65.702-.002 0-.004 0-.005.01-.004 0-.007.01-.01.013-.6.915-1.197 1.35-1.813 1.4h-.036zM-407.189 322.408l-.004.02c-.157.515-.002 1.143.53 1.934l.017.031h.001l.004.007c10.015 14.67 25.004 27.06 46.974 37.02 20.98 9.513 42.343 14.438 63.796 20.381l548.214 151.897 27.866 8.85.159-.497-687.554-219.654-.003.011zM-476.734 366.177c0 .007 0 .013-.002.02-.117.526.085 1.14.675 1.889l.02.03h.001a.013.013 0 0 1 .004.006c11.1 13.868 26.986 25.083 49.649 33.348 21.64 7.892 43.316 11.18 65.158 15.48l558.163 109.842 28.458 6.71.12-.51-702.243-166.826-.003.011zM-556.285 412.116v.021c-.072.564.203 1.197.9 1.943l.024.03.006.006c13.087 13.794 30.957 24.426 55.677 31.43 23.605 6.69 46.788 8.517 70.246 11.397l599.471 73.617 30.675 4.923.076-.545-757.074-122.833c0 .004 0 .008-.002.012zM-642.686 465.935l.002.023c-.033.613.313 1.275 1.122 2.026l.028.03h.002l.006.007c15.186 13.887 35.283 24.003 62.483 29.689 25.975 5.43 51.115 5.649 76.634 6.983l652.143 34.09 33.46 2.993.04-.595-825.917-75.259-.001.013zM682.14-128.75 351.285 512.74l-.465-.239 13.358-26.007L605.063-28.857c9.426-20.167 17.833-40.415 30.7-59.522 13.473-20.009 28.18-32.731 44.311-40.168l.008-.004a.074.074 0 0 1 .014-.004c.88-.401 1.53-.451 2.016-.209l.028.013zM762.267-146.98 383.67 467.543l-.445-.274 15.293-24.918L677.83-53.226c10.93-19.393 20.849-38.945 35.128-57.02 14.954-18.928 30.585-30.497 47.234-36.689.003 0 .005-.002.008-.003l.014-.003c.907-.333 1.56-.333 2.025-.055l.028.016zM851.003-170.754 402.527 451.433l-.44-.332 18.124-25.233L754.762-78.187c13.092-19.724 25.143-39.708 41.613-57.73 17.247-18.874 34.558-29.836 52.46-34.972.003 0 .005 0 .009-.002.005 0 .01 0 .015-.002.975-.275 1.655-.218 2.117.12l.027.02zM950.151-193.8 419.357 443.429l-.449-.392 21.458-25.849L839.383-101.26c15.614-20.288 30.128-40.935 49.25-59.127 20.027-19.05 39.515-29.555 59.193-33.724.003 0 .006 0 .01-.002h.016c1.071-.223 1.8-.11 2.271.291l.028.023zM682.19 1244.98c.006 0 .01-.01.016-.011.476-.253.81-.807.994-1.743l.01-.034.001-.01c3.292-17.455 1.453-36.814-7.038-59.393-8.108-21.56-19.732-40.15-30.699-59.522L365.236 629.214l-13.447-25.962-.464.24 330.855 641.492c.003 0 .007 0 .01-.01zM762.315 1263.207c.006 0 .01-.01.016-.013.454-.289.745-.866.858-1.813l.007-.035h-.001l.001-.01c1.958-17.654-1.345-36.818-11.526-58.687-9.722-20.884-22.724-38.536-35.129-57.02l-317.01-472.351-15.378-24.867-.445.274 378.597 614.525c.003 0 .007 0 .01-.01zM851.05 1286.975c.005 0 .01-.01.015-.015.45-.349.703-.99.737-2.01l.004-.039v-.01c.5-19.007-4.619-39.161-17.145-61.594-11.962-21.421-27.062-39.106-41.613-57.73L421.212 689.631l-18.208-25.172-.44.332L851.04 1286.98c.003 0 .006 0 .01-.01zM950.2 1310.013c.005-.01.01-.012.015-.017.457-.41.68-1.122.64-2.226l.002-.041h-.001v-.01c-.918-20.558-7.976-41.921-23.19-65.176-14.526-22.206-32.148-40.137-49.25-59.126l-437.029-485.24-21.544-25.775-.448.391 530.795 637.228c.003 0 .007-.01.01-.01zM-24.997 1244.904l330.855-641.492.465.24-13.358 26.007L52.08 1145.01c-9.426 20.167-17.833 40.415-30.7 59.522C7.908 1224.54-6.8 1237.263-22.93 1244.7h-.022c-.879.4-1.53.45-2.015.208-.01 0-.02-.01-.029-.013zM-105.124 1263.134l378.597-614.525.445.274-15.293 24.918-279.312 495.578c-10.93 19.393-20.849 38.945-35.128 57.02-14.954 18.928-30.585 30.497-47.234 36.689h-.022c-.907.333-1.56.333-2.025.055-.01 0-.019-.01-.028-.015zM-193.86 1286.907 254.617 664.72l.44.332-18.124 25.233-334.551 504.055c-13.092 19.724-25.143 39.708-41.613 57.73-17.247 18.874-34.558 29.836-52.46 34.972h-.024c-.975.275-1.655.218-2.117-.12-.009-.01-.018-.013-.027-.02zM-293.008 1309.952l530.794-637.226.449.391-21.458 25.849-399.017 518.447c-15.614 20.288-30.128 40.935-49.25 59.127-20.027 19.05-39.514 29.555-59.193 33.724a.015.015 0 0 1-.01 0h-.016c-1.071.222-1.8.108-2.271-.292-.009-.01-.019-.014-.028-.022zM-25.047-128.828c-.006.003-.01.008-.016.012-.476.253-.81.807-.994 1.743l-.01.034h.001l-.001.008c-3.292 17.455-1.454 36.814 7.038 59.393 8.108 21.56 19.732 40.15 30.698 59.522l280.24 495.053 13.445 25.962.465-.24-330.856-641.492a.046.046 0 0 0-.01.005zM-105.172-147.054l-.016.013c-.454.289-.745.866-.858 1.813l-.007.035h.001l-.001.008c-1.958 17.654 1.345 36.818 11.526 58.687 9.722 20.884 22.724 38.536 35.129 57.02l317.01 472.351 15.378 24.867.445-.274-378.597-614.526-.01.006zM-193.907-170.821l-.015.015c-.45.348-.703.99-.737 2.01l-.004.038v.008c-.5 19.007 4.619 39.161 17.145 61.594 11.962 21.421 27.062 39.106 41.613 57.73L235.93 426.52l18.208 25.172.44-.332-448.476-622.188-.01.007zM-293.057-193.86l-.015.017c-.457.41-.68 1.123-.64 2.227l-.002.041.001.001v.008c.919 20.558 7.976 41.92 23.19 65.175 14.526 22.207 32.148 40.138 49.25 59.127l437.029 485.24L237.3 443.75l.448-.392-530.795-637.228a.07.07 0 0 0-.01.008zM1064.242 322.427 376.69 542.08l-.16-.498 27.835-8.944 534.74-194.077c20.926-7.595 41.187-15.968 63.796-20.38 23.676-4.622 43.072-3.218 59.737 2.929 0 0 0 .002.01.003 0 .002.01.005.013.007.905.338 1.4.763 1.572 1.278 0 .01.01.02.011.03zM1133.791 366.195 431.548 533.02l-.12-.508 28.433-6.806 547.93-152.924c21.441-5.984 42.28-12.796 65.158-15.48 23.959-2.81 43.192.063 59.342 7.457 0 0 0 .003.01.004 0 .003.01.005.013.008.877.406 1.339.867 1.471 1.393 0 .01.01.02.01.03zM1213.347 412.13 456.274 534.962l-.076-.545 30.658-5.027 592.984-119.857c23.204-4.69 45.856-10.3 70.246-11.397 25.541-1.15 45.533 3.338 61.823 12.366 0 0 0 .003.01.004 0 .003.01.006.012.009.884.495 1.325 1.016 1.412 1.582 0 .01 0 .021.01.032zM1299.751 465.943l-825.916 75.26-.04-.595 33.45-3.105 648.746-84.45c25.387-3.304 50.25-7.642 76.634-6.983 27.631.69 48.84 7.042 65.702 18.009 0 .002 0 .004.01.005 0 .004.01.007.013.01.915.6 1.35 1.197 1.4 1.813v.036zM92.903 1293.837h.02c.515.157 1.143 0 1.934-.53.011-.01.02-.01.031-.017h.007c14.67-10.014 27.059-25.004 37.02-46.974 9.513-20.979 14.437-42.343 20.381-63.795l151.897-548.214 8.85-27.866-.497-.16-219.654 687.554h.01zM136.672 1363.382h.02c.526.117 1.14-.085 1.889-.675.01-.01.02-.012.03-.02h.006c13.868-11.1 25.083-26.986 33.348-49.649 7.892-21.64 11.18-43.317 15.48-65.159l109.842-558.163 6.71-28.457-.51-.12-166.826 702.243h.011zM182.611 1442.934h.021c.564.07 1.197-.204 1.943-.9.01-.01.02-.016.03-.025h.006c13.794-13.087 24.426-30.957 31.43-55.677 6.69-23.605 8.517-46.788 11.397-70.246l73.617-599.472 4.923-30.674-.545-.077L182.6 1442.938h.012zM236.43 1529.334h.023c.613.033 1.275-.313 2.026-1.122.01-.01.02-.017.03-.028h.001c.002 0 .003 0 .006-.01 13.887-15.186 24.003-35.283 29.69-62.483 5.43-25.975 5.648-51.115 6.982-76.634l34.09-652.143 2.993-33.46-.594-.04-75.26 825.917.013.001zM-407.099 793.726l687.553-219.653.159.498-27.835 8.944-534.74 194.077c-20.926 7.595-41.187 15.968-63.796 20.381-23.676 4.621-43.072 3.217-59.737-2.93-.003 0-.005-.002-.008-.003l-.013-.007c-.905-.338-1.4-.763-1.572-1.278l-.011-.029zM-476.648 749.958l702.243-166.826.12.509-28.433 6.805-547.93 152.924c-21.441 5.984-42.28 12.796-65.158 15.48-23.959 2.81-43.192-.062-59.342-7.457-.003 0-.005-.003-.008-.004l-.013-.008c-.877-.405-1.338-.867-1.47-1.393l-.01-.03zM-556.204 704.023l757.073-122.832.076.545-30.658 5.027-592.984 119.857c-23.204 4.69-45.856 10.3-70.246 11.397-25.541 1.15-45.533-3.338-61.823-12.366-.003 0-.005-.003-.008-.004l-.013-.009c-.884-.495-1.324-1.016-1.412-1.582l-.006-.032zM-642.608 650.21l825.916-75.26.04.595-33.45 3.105-648.746 84.45c-25.387 3.304-50.25 7.642-76.634 6.983-27.631-.69-48.84-7.042-65.702-18.009l-.008-.005-.013-.01c-.915-.6-1.35-1.197-1.4-1.813a.424.424 0 0 1-.003-.036zM564.24-177.684l-.02-.004c-.515-.157-1.143-.002-1.934.53l-.031.017v.001l-.007.004c-14.67 10.015-27.059 25.004-37.02 46.974-9.513 20.98-14.437 42.343-20.381 63.796L352.95 481.848l-8.85 27.866.497.159 219.654-687.554-.011-.003zM520.471-247.229c-.007 0-.013 0-.02-.002-.526-.117-1.14.085-1.889.675l-.03.02v.001l-.006.004c-13.867 11.1-25.083 26.986-33.348 49.649-7.892 21.64-11.18 43.316-15.48 65.158L359.857 426.44l-6.71 28.458.51.12 166.826-702.243-.011-.003zM474.532-326.78h-.021c-.564-.072-1.197.203-1.943.9l-.03.024-.006.006c-13.794 13.087-24.425 30.957-31.43 55.677-6.69 23.605-8.517 46.788-11.397 70.246l-73.617 599.471-4.923 30.675.545.076 122.833-757.074c-.004 0-.008 0-.012-.002zM420.713-413.18l-.023.001c-.613-.033-1.275.313-2.026 1.122l-.03.028v.002l-.007.006c-13.887 15.186-24.003 35.283-29.689 62.483-5.43 25.975-5.649 51.115-6.983 76.634l-34.09 652.143-2.993 33.46.595.04 75.259-825.917-.013-.001z" style="color:#000;clip-rule:nonzero;display:inline;overflow:visible;visibility:visible;opacity:1;isolation:auto;mix-blend-mode:normal;color-interpolation:sRGB;color-interpolation-filters:linearRGB;solid-color:#000;solid-opacity:1;fill:#fff;fill-opacity:1;fill-rule:nonzero;stroke:none;stroke-width:1;stroke-linecap:round;stroke-linejoin:round;stroke-miterlimit:4;stroke-dasharray:none;stroke-dashoffset:0;stroke-opacity:1;color-rendering:auto;image-rendering:auto;shape-rendering:auto;text-rendering:auto;enable-background:accumulate" transform="matrix(.03227 0 0 .03227 25.198 17.79)"/><path d="M230.755 312.364v82.517a15.543 15.543 0 0 0 9.316 14.193l30.473 13.401 30.47-13.401a15.543 15.543 0 0 0 9.319-14.193v-82.517z" style="color:#000;font-style:normal;font-variant:normal;font-weight:400;font-stretch:normal;font-size:medium;line-height:normal;font-family:sans-serif;font-variant-ligatures:normal;font-variant-position:normal;font-variant-caps:normal;font-variant-numeric:normal;font-variant-alternates:normal;font-feature-settings:normal;text-indent:0;text-align:start;text-decoration:none;text-decoration-line:none;text-decoration-style:solid;text-decoration-color:#000;letter-spacing:normal;word-spacing:normal;text-transform:none;writing-mode:lr-tb;direction:ltr;text-orientation:mixed;dominant-baseline:auto;baseline-shift:baseline;text-anchor:start;white-space:normal;shape-padding:0;clip-rule:nonzero;display:inline;overflow:visible;visibility:visible;opacity:1;isolation:auto;mix-blend-mode:normal;color-interpolation:sRGB;color-interpolation-filters:linearRGB;solid-color:#000;solid-opacity:1;vector-effect:none;fill:#0057b8;fill-opacity:1;fill-rule:nonzero;stroke:none;stroke-width:2.34375;stroke-linecap:butt;stroke-linejoin:miter;stroke-miterlimit:4;stroke-dasharray:none;stroke-dashoffset:0;stroke-opacity:1;color-rendering:auto;image-rendering:auto;shape-rendering:auto;text-rendering:auto;enable-background:accumulate" transform="translate(-40.55 -66.176) scale(.28222)"/><path d="M-208.846 84.324v86.766a15.32 15.32 0 0 0 9.192 13.996l32 14.074 32-14.074a15.32 15.32 0 0 0 9.191-13.996V84.324Z" style="fill:gold;fill-opacity:1;stroke:none;stroke-width:2.5;stroke-miterlimit:4;stroke-dasharray:none" transform="matrix(.26458 0 0 .26458 80.161 0)"/><path d="M-206.797 86.373v84.078c.007 5.43 3.149 10.616 8.438 12.961l30.707 13.625 30.703-13.625c5.29-2.345 8.43-7.532 8.437-12.963V86.373Z" style="fill:#0057b8;stroke:none;stroke-width:1.60000002" transform="matrix(.26458 0 0 .26458 80.161 0)"/><path d="M270.544 320.557a13.974 13.974 0 0 0-3.51 9.272c.129 7.81 1.086 15.603 1.17 23.41.173 7.275-2.01 14.108-4.663 20.775-.884 1.842-1.84 3.645-2.797 5.45l-2.816-.568a4.681 4.681 0 0 1-3.676-5.504 4.695 4.695 0 0 1 4.572-3.768l1.024.11-2.286-19.093c-.747-8.502-5.133-15.96-11.592-20.812a29.407 29.407 0 0 0-3.511-2.267v67.812h15.652a25.741 25.741 0 0 0 9.58 15.691 9.447 9.447 0 0 1 2.853 3.11 9.447 9.447 0 0 1 2.852-3.11 25.741 25.741 0 0 0 9.582-15.691h15.651v-67.812a29.408 29.408 0 0 0-3.51 2.267c-6.46 4.853-10.846 12.31-11.593 20.812l-2.286 19.093 1.024-.11a4.695 4.695 0 0 1 4.572 3.768 4.681 4.681 0 0 1-3.676 5.504l-2.815.567c-.957-1.804-1.914-3.607-2.798-5.45-2.653-6.666-4.836-13.5-4.663-20.775.084-7.806 1.041-15.6 1.17-23.409 0-3.556-1.329-6.796-3.51-9.272zm-23.404 16.77a24.466 24.466 0 0 1 5.668 12.857l1.883 15.746a9.38 9.38 0 0 0-4.9 6.035h-2.651zm46.808 0v34.638h-2.651a9.38 9.38 0 0 0-4.9-6.035l1.883-15.746c.606-4.87 2.64-9.3 5.668-12.856zm-23.404 31.657a53.571 53.571 0 0 0 5.138 11.65 10.517 10.517 0 0 0-5.138 3.456 10.517 10.517 0 0 0-5.138-3.456 53.572 53.572 0 0 0 5.138-11.65zm-23.404 7.663h2.651a9.396 9.396 0 0 0 6.564 6.675l2.25.512a25.77 25.77 0 0 0-.933 6.858H247.14zm44.157 0h2.651v14.045h-10.532c0-2.374-.33-4.674-.932-6.858l2.249-.512a9.396 9.396 0 0 0 6.564-6.675zm-28.122 8.266c2.84.402 5.029 2.829 5.029 5.78h-5.851c0-2.008.297-3.942.822-5.78zm14.738 0c.525 1.838.822 3.772.822 5.78h-5.85c0-2.951 2.188-5.378 5.028-5.78zm-15.03 10.461h5.32v9.857a21.085 21.085 0 0 1-5.32-9.857zm10.001 0h5.321a21.085 21.085 0 0 1-5.32 9.857z" style="fill:gold;fill-opacity:1;stroke-width:.23404209" transform="translate(-40.55 -66.176) scale(.28222)"/></g></svg>